<svg id="Layer_1" data-name="Layer 1" xmlns="http://www.w3.org/2000/svg" width="104.7" height="77" viewBox="0 0 104.7 77"><defs><style>.cls-1,.cls-2,.cls-3{fill:none;stroke:#000;stroke-linecap:round;}.cls-1,.cls-3{stroke-miterlimit:10;}.cls-1{stroke-width:2.05px;}.cls-2{stroke-width:0.62px;}.cls-3{stroke-width:1.03px;}</style></defs><g id="그룹_307" data-name="그룹 307"><line id="선_22" data-name="선 22" class="cls-1" x1="75.8" y1="23.6" x2="75.5" y2="23.4"/><ellipse id="타원_9" data-name="타원 9" cx="71.6" cy="41.9" rx="0.5" ry="1" transform="translate(11.2 84.3) rotate(-80.8)"/><ellipse id="타원_10" data-name="타원 10" cx="72.8" cy="45.3" rx="0.5" ry="0.9" transform="translate(-18.5 42.4) rotate(-44.4)"/><ellipse id="타원_11" data-name="타원 11" cx="76.4" cy="47.1" rx="0.5" ry="1" transform="translate(10.1 93.5) rotate(-80.8)"/><ellipse id="타원_12" data-name="타원 12" cx="75.1" cy="44.1" rx="0.5" ry="1" transform="translate(-17 43.7) rotate(-44.4)"/><ellipse id="타원_13" data-name="타원 13" cx="78.3" cy="44.9" rx="0.9" ry="0.5" transform="translate(-17.7 41.7) rotate(-41.6)"/><path id="패스_39" data-name="패스 39" class="cls-1" d="M84.1,43.1,67.7,36A10.6,10.6,0,0,0,73,50.1h.3a9.4,9.4,0,0,0,1.5.6" transform="translate(-7.6 -21.5)"/><ellipse id="타원_15" data-name="타원 15" cx="45.8" cy="60.8" rx="1.1" ry="0.5" transform="translate(-32.3 10.5) rotate(-30.8)"/><ellipse id="타원_16" data-name="타원 16" cx="48.1" cy="62.3" rx="0.5" ry="0.9" transform="translate(-33.1 68.8) rotate(-73.2)"/><ellipse id="타원_17" data-name="타원 17" cx="49.4" cy="59.7" rx="0.9" ry="0.5" transform="translate(-31.2 12.2) rotate(-30.8)"/><ellipse id="타원_18" data-name="타원 18" cx="51.5" cy="60.8" rx="0.5" ry="0.9" transform="translate(-27.7 74.3) rotate(-75.8)"/><ellipse id="타원_19" data-name="타원 19" cx="53.6" cy="58.7" rx="0.8" ry="0.5" transform="translate(-33.5 34.6) rotate(-45.7)"/><ellipse id="타원_20" data-name="타원 20" cx="51" cy="57.4" rx="0.4" ry="0.8" transform="translate(-21.1 77.6) rotate(-81.2)"/><ellipse id="타원_21" data-name="타원 21" cx="53.9" cy="55.5" rx="0.9" ry="0.5" transform="translate(-28.4 13.9) rotate(-30.8)"/><path id="패스_41" data-name="패스 41" class="cls-1" d="M42.2,64.2a9.9,9.9,0,0,0,10.8.6,11.1,11.1,0,0,0,3.9-15.2" transform="translate(-7.6 -21.5)"/><path id="패스_43" data-name="패스 43" class="cls-1" d="M41.6,64.8" transform="translate(-7.6 -21.5)"/><path id="패스_44" data-name="패스 44" class="cls-1" d="M56.9,49.6h0L42,58.5" transform="translate(-7.6 -21.5)"/><path id="패스_45" data-name="패스 45" class="cls-1" d="M41.9,58.5" transform="translate(-7.6 -21.5)"/><rect id="사각형_73" data-name="사각형 73" class="cls-1" x="37.8" y="71.8" width="41.7" height="4.17"/><path id="사각형_74" data-name="사각형 74" class="cls-1" d="M20.4,66.2h90.1v2.3A24.8,24.8,0,0,1,85.7,93.3H47.5A27.1,27.1,0,0,1,20.4,66.2Z" transform="translate(-7.6 -21.5)"/><path id="패스_69" data-name="패스 69" class="cls-2" d="M63.6,48a2,2,0,1,1,0,4,2,2,0,0,1-2-2h0A2,2,0,0,1,63.6,48Z" transform="translate(-7.6 -21.5)"/><path id="패스_46" data-name="패스 46" class="cls-1" d="M67.4,54.7a7.8,7.8,0,0,0-1.7-10.8h-.2c-4.3-2.4-6.9-3.5-9-1.4s-1.6,3.6.2,7.3" transform="translate(-7.6 -21.5)"/><path id="패스_47" data-name="패스 47" class="cls-1" d="M57.8,51.8A6.4,6.4,0,0,0,61.9,55" transform="translate(-7.6 -21.5)"/><g id="그룹_27" data-name="그룹 27"><path id="패스_48" data-name="패스 48" class="cls-1" d="M42,30.7c2,3,5.2,5.1,6.8,8.3a25,25,0,0,1,1.6,5.1,10.2,10.2,0,0,1,.3,3.5A10.1,10.1,0,0,1,48.3,52" transform="translate(-7.6 -21.5)"/><path id="패스_49" data-name="패스 49" class="cls-1" d="M42,30.7a15,15,0,0,0-4.3,6.9,8.7,8.7,0,0,0,1.3,7,14.2,14.2,0,0,0,3.6,3.3L48.3,52" transform="translate(-7.6 -21.5)"/><path id="패스_50" data-name="패스 50" class="cls-1" d="M43.6,39.6c2.7,2.1,4.4,8.9,4.7,12.4" transform="translate(-7.6 -21.5)"/></g><path id="패스_51" data-name="패스 51" class="cls-1" d="M65.7,22.5a14.4,14.4,0,0,0-6.6,5.1c-1.8,2.4-3.5,5.3-2.8,8.2" transform="translate(-7.6 -21.5)"/><path id="패스_52" data-name="패스 52" class="cls-1" d="M65.7,22.5a8.3,8.3,0,0,1,.4,5.8A9.6,9.6,0,0,1,64.8,32,7.6,7.6,0,0,1,61,34.8a24.6,24.6,0,0,1-4.7,1" transform="translate(-7.6 -21.5)"/><path id="패스_53" data-name="패스 53" class="cls-3" d="M62.4,29a33,33,0,0,1-6.1,6.8" transform="translate(-7.6 -21.5)"/><g id="그룹_29" data-name="그룹 29"><path id="패스_54" data-name="패스 54" class="cls-1" d="M8.7,46.2l4.8.9a46.4,46.4,0,0,1,7.3,2A26.4,26.4,0,0,1,32.9,59.4a49.2,49.2,0,0,1,3.7,6.8" transform="translate(-7.6 -21.5)"/><path id="패스_55" data-name="패스 55" class="cls-1" d="M8.7,46.2c3.7,2.4,7.4,5.5,8.5,9.9.5,1.7.4,3.6.9,5.4a11.7,11.7,0,0,0,2.1,4.7" transform="translate(-7.6 -21.5)"/><path id="패스_56" data-name="패스 56" class="cls-1" d="M24.6,58.7c2.4,2.4,4.7,4.8,6.9,7.3" transform="translate(-7.6 -21.5)"/><path id="패스_57" data-name="패스 57" class="cls-1" d="M21,49l-.6-10c0-.3.1-.7.3-.8a.6.6,0,0,1,.6,0A28.2,28.2,0,0,1,39.2,50.6,22.4,22.4,0,0,1,41.9,66" transform="translate(-7.6 -21.5)"/><path id="패스_58" data-name="패스 58" class="cls-1" d="M30.1,50.2c1.3,3.3,2.9,7.9,4,11.2" transform="translate(-7.6 -21.5)"/></g><g id="그룹_30" data-name="그룹 30"><path id="패스_59" data-name="패스 59" class="cls-1" d="M110.6,66.7a12.2,12.2,0,0,0-1.2-9.5,11.6,11.6,0,0,0-1.3-14.5l.6-.6a8.2,8.2,0,0,0-1.4-11.4A8.1,8.1,0,0,0,95.9,32a8.6,8.6,0,0,0-1.8,4.8,12,12,0,0,0-11,9.4A11.7,11.7,0,0,0,72.5,59.1a11.3,11.3,0,0,0,2.8,6.6" transform="translate(-7.6 -21.5)"/><path id="패스_60" data-name="패스 60" class="cls-1" d="M110.5,66.9" transform="translate(-7.6 -21.5)"/><path id="패스_61" data-name="패스 61" class="cls-1" d="M91.9,72.6" transform="translate(-7.6 -21.5)"/><path id="패스_62" data-name="패스 62" class="cls-1" d="M88.8,69" transform="translate(-7.6 -21.5)"/><path id="패스_63" data-name="패스 63" class="cls-1" d="M81.8,69.6" transform="translate(-7.6 -21.5)"/><path id="패스_64" data-name="패스 64" class="cls-1" d="M101.8,39.7,93.1,56.5a43.3,43.3,0,0,0-3.7,9.6" transform="translate(-7.6 -21.5)"/><path id="패스_65" data-name="패스 65" class="cls-1" d="M95.1,39.8a3.8,3.8,0,0,0,.1,3.7,7.5,7.5,0,0,0,2.7,2.6,8.2,8.2,0,0,0,3.6,1.5,4.5,4.5,0,0,0,3.7-.9" transform="translate(-7.6 -21.5)"/><path id="패스_66" data-name="패스 66" class="cls-1" d="M89.8,46.5a6.8,6.8,0,0,0,2.7,7.7,15.1,15.1,0,0,0,2.9,1.3,12.3,12.3,0,0,0,3.3.8,3.8,3.8,0,0,0,3.2-1.2" transform="translate(-7.6 -21.5)"/><path id="패스_67" data-name="패스 67" class="cls-1" d="M83.2,56.1a12.7,12.7,0,0,0,5.3,5.2,41.5,41.5,0,0,0,6.9,2.8,7.6,7.6,0,0,0,3,0,6.1,6.1,0,0,0,3.4-1.2" transform="translate(-7.6 -21.5)"/></g><path id="패스_68" data-name="패스 68" class="cls-1" d="M73.5,62.9l.8,3.1H58.4V54.8H72.8" transform="translate(-7.6 -21.5)"/><ellipse id="타원_23" data-name="타원 23" cx="61.6" cy="57" rx="0.5" ry="1" transform="matrix(0.16, -0.99, 0.99, 0.16, -12.19, 87.25)"/><ellipse id="타원_24" data-name="타원 24" cx="62.6" cy="61.8" rx="0.5" ry="1" transform="translate(-16.1 92.2) rotate(-80.8)"/><ellipse id="타원_25" data-name="타원 25" cx="66.2" cy="60.2" rx="0.5" ry="1" transform="translate(-11.5 94.4) rotate(-80.8)"/><ellipse id="타원_26" data-name="타원 26" cx="68.4" cy="57.6" rx="0.5" ry="1" transform="translate(-7 94.5) rotate(-80.8)"/><ellipse id="타원_27" data-name="타원 27" cx="69.4" cy="63.7" rx="0.5" ry="1" transform="translate(-12.2 100.5) rotate(-80.8)"/></g></svg>